<svg width="14" height="14" viewBox="0 0 14 14" fill="none" xmlns="http://www.w3.org/2000/svg">
<path d="M0.580529 7.70188C-0.19351 7.56496 -0.19351 6.43505 0.580529 6.29812C3.38472 5.80204 5.61508 3.63014 6.22374 0.802769L6.27041 0.586043C6.43778 -0.191856 7.52716 -0.196699 7.70119 0.579682L7.75787 0.832251C8.38914 3.64627 10.62 5.79984 13.4165 6.29453C14.1945 6.43217 14.1945 7.56783 13.4165 7.70545C10.62 8.20016 8.38914 10.3537 7.75787 13.1677L7.70119 13.4203C7.52716 14.1967 6.43778 14.1919 6.27041 13.414L6.22374 13.1972C5.61508 10.3699 3.38472 8.19796 0.580529 7.70188Z" fill="#0000FF"/>
</svg>
