<svg width="12" height="11" viewBox="0 0 12 11" fill="none" xmlns="http://www.w3.org/2000/svg">
<path d="M7.1274 3.76359V1.32931C7.1274 0.896649 6.77667 0.545898 6.34399 0.545898H2.64865C2.21598 0.545898 1.86523 0.896649 1.86523 1.32931V10.4524" stroke="#2B2B33" stroke-width="0.75" stroke-linecap="round" stroke-linejoin="round"/>
<path d="M1 10.4531H4.83286" stroke="#2B2B33" stroke-width="0.75" stroke-linecap="round" stroke-linejoin="round"/>
<path d="M1.86523 2.55859H3.76296" stroke="#2B2B33" stroke-width="0.75" stroke-linecap="round" stroke-linejoin="round"/>
<path d="M1.86523 4.53418H4.83329" stroke="#2B2B33" stroke-width="0.75" stroke-linecap="round" stroke-linejoin="round"/>
<path d="M8.68422 7.83815C9.42993 7.83815 10.0344 7.23362 10.0344 6.48791C10.0344 5.74221 9.42993 5.1377 8.68422 5.1377C7.93849 5.1377 7.33398 5.74221 7.33398 6.48791C7.33398 7.23362 7.93849 7.83815 8.68422 7.83815Z" stroke="#2B2B33" stroke-width="0.75" stroke-linecap="round" stroke-linejoin="round"/>
<path d="M6.36719 10.4523C6.37128 10.0575 6.47472 9.67015 6.66783 9.32649C7.07479 8.6023 7.85637 8.14248 8.68273 8.14062C9.50904 8.14248 10.2906 8.6023 10.6976 9.32649C10.8907 9.67015 10.9941 10.0575 10.9982 10.4523" stroke="#2B2B33" stroke-width="0.75" stroke-linecap="round" stroke-linejoin="round"/>
</svg>
