<svg width="18" height="20" viewBox="0 0 18 20" fill="none" xmlns="http://www.w3.org/2000/svg">
<path d="M6.62731 3.42308L7.20372 1.88615C7.30093 1.62593 7.47197 1.40211 7.69441 1.24399C7.91687 1.08587 8.18035 1.00082 8.45038 1H9.54959C9.81962 1.00082 10.0831 1.08587 10.3056 1.24399C10.528 1.40211 10.699 1.62593 10.7962 1.88615L11.3727 3.42308L13.3297 4.58615L14.9115 4.33692C15.1749 4.3 15.443 4.34477 15.6818 4.46558C15.9204 4.58639 16.1189 4.77776 16.252 5.01538L16.7882 5.98462C16.9256 6.22602 16.989 6.50479 16.9698 6.78412C16.9507 7.06345 16.85 7.33023 16.681 7.54923L15.7024 8.83692V11.1631L16.7078 12.4508C16.8768 12.6698 16.9775 12.9365 16.9966 13.2159C17.0158 13.4952 16.9524 13.774 16.815 14.0154L16.2788 14.9846C16.1457 15.2222 15.9472 15.4136 15.7086 15.5344C15.4698 15.6552 15.2017 15.7 14.9383 15.6631L13.3565 15.4138L11.3995 16.5769L10.8231 18.1138C10.7258 18.374 10.5548 18.5979 10.3324 18.756C10.1099 18.9142 9.84643 18.9992 9.5764 19H8.45038C8.18035 18.9992 7.91687 18.9142 7.69441 18.756C7.47197 18.5979 7.30093 18.374 7.20372 18.1138L6.62731 16.5769L4.67019 15.4138L3.08841 15.6631C2.82502 15.7 2.55695 15.6552 2.31826 15.5344C2.07959 15.4136 1.88106 15.2222 1.74791 14.9846L1.21171 14.0154C1.07431 13.774 1.01101 13.4952 1.03016 13.2159C1.0493 12.9365 1.15 12.6698 1.31895 12.4508L2.29751 11.1631V8.83692L1.29214 7.54923C1.12319 7.33023 1.02249 7.06345 1.00335 6.78412C0.984204 6.50479 1.0475 6.22602 1.1849 5.98462L1.7211 5.01538C1.85425 4.77776 2.05278 4.58639 2.29145 4.46558C2.53014 4.34477 2.79821 4.3 3.0616 4.33692L4.64338 4.58615L6.62731 3.42308ZM6.319 10C6.319 10.5477 6.47624 11.0831 6.77082 11.5385C7.06542 11.9939 7.48413 12.3488 7.97401 12.5584C8.46391 12.768 9.00296 12.8229 9.52302 12.716C10.0431 12.6092 10.5208 12.3454 10.8957 11.9581C11.2707 11.5709 11.526 11.0774 11.6295 10.5402C11.7329 10.0031 11.6798 9.44628 11.4769 8.94026C11.274 8.43425 10.9304 8.00175 10.4895 7.69747C10.0486 7.39318 9.53023 7.23077 8.99998 7.23077C8.28895 7.23077 7.60702 7.52252 7.10424 8.04186C6.60147 8.56119 6.319 9.26556 6.319 10Z" stroke="#2B2B33" stroke-linecap="round" stroke-linejoin="round"/>
</svg>
