<svg width="12" height="11" viewBox="0 0 12 11" fill="none" xmlns="http://www.w3.org/2000/svg">
<path d="M10.9184 2.88063C10.9035 2.79998 10.8719 2.72336 10.8255 2.65574C10.7791 2.58812 10.719 2.53102 10.649 2.48814L9.10982 4.02731C9.03802 4.10179 8.95198 4.16104 8.85678 4.20151C8.76158 4.24197 8.65915 4.26283 8.55572 4.26283C8.45228 4.26283 8.34993 4.24197 8.2547 4.20151C8.1595 4.16104 8.07342 4.10179 8.00164 4.02731L7.41675 3.50399C7.27574 3.36013 7.19676 3.16672 7.19676 2.96528C7.19676 2.76384 7.27574 2.57043 7.41675 2.42657L8.9559 0.887394C8.92235 0.80854 8.87186 0.738026 8.80807 0.680841C8.74419 0.623657 8.66862 0.581199 8.5865 0.556472C8.04948 0.449376 7.49316 0.495219 6.9809 0.688782C6.46864 0.882345 6.02102 1.21585 5.68899 1.65133C5.35697 2.0868 5.15389 2.60676 5.10288 3.15199C5.05508 3.66274 5.14253 4.17644 5.35556 4.64176L1.22541 8.77188C0.920521 9.07679 0.925577 9.57263 1.23662 9.87123L1.66819 10.2856C1.96921 10.5746 2.4457 10.571 2.74236 10.2775L6.91994 6.14519C7.37178 6.33179 7.86397 6.40277 8.3517 6.35048C8.89095 6.29267 9.40365 6.08642 9.8327 5.75465C10.2618 5.42287 10.5904 4.97859 10.7821 4.4712C10.9738 3.96382 11.0209 3.41322 10.9184 2.88063Z" stroke="#2B2B33" stroke-width="0.75" stroke-linecap="round" stroke-linejoin="round"/>
</svg>
