<svg width="16" height="16" viewBox="0 0 16 16" fill="none" xmlns="http://www.w3.org/2000/svg">
<path d="M14.909 4.50092C14.8672 3.8546 14.641 3.2641 14.2852 2.77734" stroke="#2B2B33" stroke-linecap="round" stroke-linejoin="round"/>
<path d="M3.90625 1.78815C4.26562 1.24932 4.75672 0.851 5.30833 0.607422" stroke="#2B2B33" stroke-linecap="round" stroke-linejoin="round"/>
<path d="M3.6222 13.7274L3.22692 13.2777C2.67834 12.6535 2.24781 11.9347 1.95629 11.1565L1.17077 9.05961C0.976266 8.5404 1.14045 7.95501 1.57658 7.61267C2.23074 7.09918 3.19359 7.34113 3.5273 8.10286L4.19071 9.61716C4.68784 9.75037 5.82768 10.2689 6.40997 11.2775" stroke="#2B2B33" stroke-linecap="round" stroke-linejoin="round"/>
<path d="M4.19141 9.6185L5.85649 3.40435C6.04041 2.71795 6.74594 2.31061 7.43233 2.49453C8.11873 2.67845 8.52607 3.38399 8.34215 4.07037L7.34311 7.79888L8.74177 2.57898C8.92569 1.89258 9.63122 1.48524 10.3176 1.66916C11.004 1.85308 11.4113 2.55861 11.2274 3.24501L9.69557 8.96204L10.5614 5.73067C10.7453 5.04428 11.4509 4.63694 12.1373 4.82086C12.8237 5.00477 13.231 5.7103 13.0471 6.3967L11.0942 13.6848C10.9373 14.2704 10.5542 14.7696 10.0292 15.0728L9.58848 15.3272" stroke="#2B2B33" stroke-linecap="round" stroke-linejoin="round"/>
</svg>
