<svg width="10" height="11" viewBox="0 0 10 11" fill="none" xmlns="http://www.w3.org/2000/svg">
<g clip-path="url(#clip0_7121_1906)">
<path d="M3.57087 5.14272C4.55709 5.14272 5.35658 4.34322 5.35658 3.357C5.35658 2.37078 4.55709 1.57129 3.57087 1.57129C2.58465 1.57129 1.78516 2.37078 1.78516 3.357C1.78516 4.34322 2.58465 5.14272 3.57087 5.14272Z" stroke="#2B2B33" stroke-width="0.75" stroke-linecap="round" stroke-linejoin="round"/>
<path d="M0.357422 10.1424H3.57171H6.78599V9.75517C6.78031 9.21074 6.63672 8.6766 6.36866 8.20274C6.10059 7.72881 5.71678 7.3306 5.25309 7.04525C4.78939 6.75989 4.26093 6.59673 3.71708 6.57098C3.66859 6.56868 3.62012 6.56748 3.57171 6.56738C3.52329 6.56748 3.47482 6.56868 3.42634 6.57098C2.88249 6.59673 2.35403 6.75989 1.89033 7.04525C1.42664 7.3306 1.04283 7.72881 0.774758 8.20274C0.506691 8.6766 0.363108 9.21074 0.357422 9.75517V10.1424Z" stroke="#2B2B33" stroke-width="0.75" stroke-linecap="round" stroke-linejoin="round"/>
<path d="M6.42969 5.14272C7.4159 5.14272 8.2154 4.34322 8.2154 3.357C8.2154 2.37078 7.4159 1.57129 6.42969 1.57129" stroke="#2B2B33" stroke-width="0.75" stroke-linecap="round" stroke-linejoin="round"/>
<path d="M8.21401 10.1427H9.64258V9.75541C9.63686 9.21099 9.49329 8.67684 9.22522 8.20299C8.95715 7.72906 8.57336 7.33086 8.10965 7.04551C7.80994 6.86104 7.48308 6.72764 7.14258 6.64941" stroke="#2B2B33" stroke-width="0.75" stroke-linecap="round" stroke-linejoin="round"/>
</g>
<defs>
<clipPath id="clip0_7121_1906">
<rect width="10" height="10" fill="white" transform="translate(0 0.5)"/>
</clipPath>
</defs>
</svg>
