<?xml version="1.0" standalone="no"?>
<!DOCTYPE svg PUBLIC "-//W3C//DTD SVG 20010904//EN"
 "http://www.w3.org/TR/2001/REC-SVG-20010904/DTD/svg10.dtd">
<svg version="1.0" xmlns="http://www.w3.org/2000/svg"
 width="713.000000pt" height="713.000000pt" viewBox="0 0 713.000000 713.000000"
 preserveAspectRatio="xMidYMid meet">
<metadata>
Created by potrace 1.14, written by Peter Selinger 2001-2017
</metadata>
<g transform="translate(0.000000,713.000000) scale(0.100000,-0.100000)"
fill="#000000" stroke="none">
<path d="M3437 6983 c-1 -1 -26 -3 -55 -4 -29 -2 -55 -6 -58 -10 -3 -5 -16 -4
-29 1 -14 5 -25 6 -25 2 0 -4 -8 -8 -17 -9 -60 -2 -93 -8 -93 -16 0 -5 -6 -4
-14 2 -8 7 -16 8 -18 2 -1 -5 -21 -12 -43 -15 -22 -4 -65 -14 -95 -22 -30 -9
-59 -17 -65 -18 -37 -7 -105 -32 -105 -39 0 -4 -3 -6 -7 -4 -5 3 -19 0 -33 -6
-14 -5 -30 -11 -36 -12 -6 -2 -41 -17 -78 -34 -37 -17 -72 -31 -77 -31 -5 0
-9 -5 -9 -12 0 -6 -3 -8 -6 -5 -4 4 -19 -2 -33 -12 -14 -10 -41 -24 -58 -32
-18 -8 -33 -17 -33 -20 0 -4 -13 -12 -30 -19 -16 -7 -30 -17 -30 -23 0 -6 -3
-7 -6 -4 -6 6 -22 -5 -81 -53 -7 -6 -17 -10 -22 -10 -5 0 -16 -8 -23 -18 -7
-10 -20 -23 -29 -28 -41 -23 -201 -172 -269 -250 -47 -54 -140 -173 -140 -179
0 -6 -41 -67 -51 -75 -13 -11 -131 -248 -159 -319 -23 -60 -69 -211 -76 -251
-2 -14 -7 -36 -11 -50 -9 -37 -10 -40 -17 -95 -3 -27 -9 -66 -12 -85 -7 -48
-7 -344 0 -367 3 -10 8 -37 10 -58 13 -118 45 -254 93 -385 32 -89 131 -299
156 -329 12 -14 32 -47 43 -71 4 -8 10 -17 13 -20 4 -3 33 -41 66 -85 32 -44
65 -86 72 -93 15 -15 4 -43 -25 -64 -16 -12 -127 -137 -181 -204 -12 -16 -36
-50 -53 -76 -16 -27 -34 -48 -39 -48 -6 0 -8 -4 -4 -9 3 -5 1 -12 -3 -15 -12
-7 -85 -133 -82 -142 1 -4 -3 -10 -8 -13 -20 -12 -144 -306 -157 -371 -2 -8
-8 -35 -15 -60 -7 -25 -14 -53 -16 -62 -2 -10 -6 -28 -9 -40 -9 -42 -22 -116
-31 -183 -9 -64 -10 -393 -2 -465 10 -89 30 -195 57 -300 7 -25 22 -74 34
-110 11 -36 22 -67 22 -70 1 -3 9 -22 18 -44 9 -21 17 -44 17 -50 0 -7 6 -18
13 -25 6 -6 12 -15 12 -19 1 -8 48 -105 55 -112 3 -3 6 -12 8 -20 2 -8 8 -16
13 -18 5 -2 9 -9 9 -16 0 -16 143 -230 181 -270 16 -17 29 -34 29 -38 0 -12
180 -198 192 -198 5 0 8 -7 8 -15 0 -8 6 -15 13 -15 7 0 20 -8 28 -17 9 -10
30 -29 48 -43 18 -14 40 -33 49 -42 9 -10 22 -18 29 -18 7 0 13 -4 13 -9 0 -5
17 -20 37 -32 21 -13 42 -29 46 -36 4 -7 16 -13 26 -13 11 0 22 -7 25 -16 3
-8 10 -12 16 -9 5 3 10 1 10 -4 0 -6 7 -11 15 -11 8 0 15 -4 15 -9 0 -5 17
-16 38 -25 20 -9 69 -34 109 -55 40 -21 75 -36 78 -33 3 3 5 0 5 -6 0 -7 3
-11 8 -10 4 1 24 -6 45 -15 20 -9 39 -17 42 -17 3 0 35 -12 72 -26 38 -15 73
-27 78 -29 6 -1 17 -5 25 -8 8 -4 26 -9 40 -11 14 -3 26 -5 28 -7 1 -1 5 -2
10 -3 4 -1 12 -4 17 -7 6 -4 22 -6 37 -5 14 1 24 -3 21 -8 -4 -5 1 -7 9 -3 9
3 19 3 23 -1 4 -4 15 -8 26 -8 10 -1 20 -2 22 -3 3 -3 54 -11 92 -15 17 -2 30
-5 30 -6 0 -1 18 -3 40 -5 22 -2 65 -7 95 -10 30 -3 66 -7 80 -8 14 -1 31 2
38 7 7 5 12 5 12 -1 0 -6 12 -8 28 -6 31 5 38 5 72 0 14 -2 33 1 44 6 13 7 16
6 11 -3 -6 -9 -2 -9 14 -1 16 9 21 9 21 -1 0 -8 3 -9 8 -3 4 6 27 11 52 12 45
1 97 7 155 18 27 5 101 14 133 17 6 1 12 4 12 8 0 5 11 8 65 13 14 1 25 5 25
8 0 3 6 6 13 7 6 0 23 3 37 7 14 4 33 8 43 8 9 1 17 4 17 8 0 6 40 19 70 24 3
0 11 4 17 8 7 5 13 5 13 0 0 -4 4 -3 8 2 4 6 23 16 42 22 53 17 104 37 110 44
5 5 82 43 90 44 3 0 12 5 20 10 8 6 28 17 45 25 64 32 175 103 175 112 0 5 5
6 10 3 6 -3 10 -1 10 5 0 6 5 8 10 5 6 -3 10 -2 10 3 0 5 17 21 38 34 20 14
50 36 65 49 101 86 128 111 184 167 35 35 63 68 63 73 0 5 6 9 13 10 11 0 79
80 104 122 6 11 15 22 20 26 5 3 20 22 33 41 13 19 28 38 33 41 5 3 8 8 6 10
-2 4 25 50 70 119 20 29 121 236 121 245 0 4 6 21 14 38 34 77 91 267 101 337
2 14 7 41 10 60 7 34 9 50 21 160 7 67 7 293 0 375 -5 54 -22 169 -33 220 -2
11 -6 31 -9 45 -39 193 -159 478 -279 660 -31 48 -103 147 -120 166 -5 7 -26
31 -45 55 -19 24 -62 71 -96 105 -54 55 -59 64 -47 80 29 41 48 66 64 85 10
11 35 46 56 77 21 31 40 59 43 62 28 27 164 295 176 346 4 16 10 34 14 39 6 8
38 107 46 140 1 6 6 28 12 50 6 22 13 56 16 75 3 19 8 46 11 60 20 95 27 385
12 500 -18 146 -23 167 -70 340 -32 113 -140 350 -197 430 -11 16 -20 33 -20
38 0 6 -4 12 -8 14 -5 2 -23 26 -42 53 -19 28 -39 55 -45 61 -5 6 -21 26 -35
45 -32 44 -232 249 -243 249 -4 0 -23 16 -43 35 -19 19 -38 35 -43 35 -4 0
-20 11 -35 25 -15 14 -31 25 -37 25 -5 0 -9 5 -9 10 0 6 -5 10 -10 10 -10 0
-98 56 -127 80 -7 6 -15 10 -18 10 -9 1 -40 13 -45 19 -12 14 -128 69 -134 64
-3 -4 -6 -1 -6 5 0 7 -3 11 -7 10 -5 -1 -19 4 -33 9 -84 36 -129 51 -134 46
-3 -4 -6 -1 -6 5 0 7 -8 12 -17 12 -14 0 -40 7 -103 28 -8 3 -22 6 -30 7 -8 2
-26 6 -40 10 -14 4 -34 8 -45 10 -11 2 -20 4 -20 5 0 3 -30 8 -72 12 -18 2
-33 6 -33 10 0 3 -9 4 -19 1 -10 -3 -29 1 -41 7 -18 10 -21 9 -15 -1 6 -8 4
-10 -5 -4 -7 4 -34 10 -59 12 -52 5 -291 10 -294 6z m191 -1304 c1 -1 10 -2
20 -3 54 -7 118 -19 127 -26 6 -4 31 -13 58 -20 26 -7 47 -17 47 -21 0 -5 3
-8 8 -7 4 1 22 -6 40 -15 17 -10 32 -15 32 -12 0 5 31 -18 61 -47 9 -9 19 -14
22 -12 2 3 21 -14 41 -36 20 -22 36 -37 36 -34 0 3 20 -21 45 -54 25 -33 45
-65 45 -71 0 -6 5 -11 10 -11 6 0 10 -6 10 -13 0 -8 7 -27 15 -43 25 -52 42
-147 39 -224 -3 -66 -8 -109 -14 -117 -2 -2 -4 -7 -5 -13 -1 -5 -4 -13 -5 -17
-2 -5 -4 -12 -5 -18 -10 -51 -81 -162 -148 -229 -53 -54 -137 -116 -156 -116
-6 0 -11 -4 -11 -10 0 -5 -4 -10 -9 -10 -5 0 -26 -8 -47 -17 -22 -9 -42 -16
-46 -15 -5 1 -8 -3 -8 -10 0 -6 -3 -9 -6 -5 -3 3 -18 1 -33 -5 -41 -16 -117
-30 -176 -32 -16 0 -33 -5 -37 -11 -5 -7 -8 -6 -8 0 0 7 -24 11 -57 10 -52 -1
-99 4 -185 19 -15 3 -36 10 -46 15 -11 6 -22 7 -26 4 -3 -3 -6 -1 -6 6 0 7 -4
10 -9 7 -9 -6 -134 54 -139 66 -2 5 -10 8 -18 8 -8 0 -14 5 -14 12 0 6 -2 9
-5 6 -6 -6 -57 36 -108 87 -55 56 -111 150 -138 230 -54 161 -26 360 67 482
14 18 22 33 19 33 -14 0 133 134 173 157 23 14 42 29 42 35 0 5 5 6 10 3 6 -3
22 2 38 13 23 16 125 54 157 58 6 1 12 3 15 4 17 6 54 11 120 17 41 3 76 6 77
7 2 2 88 -2 91 -5z m92 -2573 c47 -9 62 -12 80 -19 8 -3 36 -11 63 -17 26 -7
47 -17 47 -22 0 -5 5 -6 10 -3 6 3 10 2 10 -3 0 -5 7 -9 15 -10 8 -1 22 -3 30
-4 8 -1 15 -5 15 -10 0 -5 5 -6 10 -3 6 3 10 1 10 -4 0 -6 7 -11 15 -11 8 0
15 -4 15 -10 0 -5 6 -10 13 -10 18 0 136 -92 188 -147 55 -58 120 -152 147
-213 23 -53 35 -85 30 -86 -2 0 2 -7 8 -15 7 -8 15 -36 18 -63 4 -27 10 -54
13 -58 8 -14 2 -243 -7 -243 -2 0 -6 -18 -14 -56 -3 -15 -13 -43 -21 -63 -8
-20 -15 -38 -15 -41 1 -15 -74 -136 -110 -180 -77 -91 -244 -225 -290 -232 -8
-1 -16 -7 -18 -13 -2 -5 -8 -8 -13 -4 -5 3 -9 0 -9 -5 0 -6 -3 -10 -7 -9 -5 1
-21 -4 -38 -11 -16 -7 -34 -14 -40 -15 -5 -1 -36 -10 -67 -19 -31 -10 -61 -17
-65 -16 -4 1 -10 0 -13 -1 -42 -16 -221 -27 -242 -14 -4 3 -8 -1 -8 -8 0 -8
-3 -9 -8 -3 -4 6 -28 11 -53 13 -45 3 -82 8 -86 12 -2 2 -12 4 -23 5 -11 1
-23 4 -27 5 -5 2 -12 4 -18 4 -38 6 -197 75 -207 90 -4 6 -8 8 -8 4 0 -4 -24
9 -52 28 -29 19 -56 34 -60 34 -5 0 -8 7 -8 17 0 9 -3 14 -6 10 -4 -3 -23 9
-43 28 -20 19 -39 35 -43 35 -5 0 -8 4 -8 10 0 5 -13 22 -28 37 -16 16 -31 36
-35 46 -3 9 -11 17 -17 17 -5 0 -10 5 -10 10 0 6 -11 27 -23 48 -36 56 -77
165 -91 243 -17 87 -13 236 9 314 9 33 18 65 19 70 14 52 120 235 137 235 5 0
9 5 9 11 0 22 193 190 208 181 2 -2 8 0 11 5 14 19 161 87 216 100 41 9 50 12
50 14 0 2 19 5 68 13 16 2 31 6 33 9 7 6 292 1 334 -7z"/>
</g>
</svg>
